<?xml version="1.0" encoding="utf-8"?>
<!-- Generator: Adobe Illustrator 15.0.0, SVG Export Plug-In . SVG Version: 6.00 Build 0)  -->
<!DOCTYPE svg PUBLIC "-//W3C//DTD SVG 1.1//EN" "http://www.w3.org/Graphics/SVG/1.1/DTD/svg11.dtd">
<svg version="1.1" id="Layer_1" xmlns="http://www.w3.org/2000/svg" xmlns:xlink="http://www.w3.org/1999/xlink" x="0px" y="0px"
	 width="208.489px" height="208px" viewBox="0 0 208.489 208" enable-background="new 0 0 208.489 208" xml:space="preserve">
<g id="emblum_2_">
	<circle fill="#1F2E37" cx="104.404" cy="104.497" r="96.497"/>
	<circle fill="none" stroke="#FFFFFF" stroke-width="11" stroke-miterlimit="10" cx="104.591" cy="105.682" r="76.377"/>
	<g>
		<path fill="#FFFFFF" d="M81.894,115.73l0.846,1.691c-4.019,4.442-8.391,8.18-10.646,8.18c-2.82,0-4.441-1.834-4.09-4.724
			l3.879-24.188l-0.354-0.279l-4.865-0.214l-0.211-0.351l0.281-2.045l5.642-0.918c0.563-4.02,1.128-8.461,1.128-8.461l6.346-2.468
			l0.424,0.847c0,0-1.552,4.795-2.82,10.293l8.602-0.068l0.282,0.211l-0.563,2.82l-8.32-0.071l-0.775,0.425l-4.302,21.646
			c-0.211,1.621,0.282,2.467,1.621,2.467c1.271,0,3.174-1.271,6.981-4.864L81.894,115.73z"/>
		<path fill="#FFFFFF" d="M107.907,77.865c0,0-7.826,20.308-12.128,31.73c-4.301,11.637-8.531,22.918-8.531,22.918h-3.385
			l-0.423-0.563c0,0,5.148-12.41,9.097-23.128l11.634-31.661h3.314L107.907,77.865z"/>
		<path fill="#FFFFFF" d="M123.838,84.846c-7.332,0.284-7.825,1.199-9.659,9.238l-5.853,0.422c0,0,1.623-8.179,2.609-15.017
			l0.917-0.778l6.627,0.778h21.296l7.119-0.778l0.637,0.778c-0.775,6.979-1.129,14.595-1.129,14.595l-5.854,0.422
			c0.072-8.601-0.07-9.376-6.907-9.66c-1.271,6.84-4.584,29.122-4.584,31.731c0,2.538,0.914,3.595,3.171,3.595
			c2.116,0,3.736-0.21,3.736-0.21l0.211,0.353l-1.195,4.725c0,0-8.322-0.282-11.917-0.282c-3.81,0-11.493,0.425-11.493,0.425
			l1.129-4.584c5.991-0.562,6.908-1.41,7.684-7.476L123.838,84.846z"/>
	</g>
</g>
</svg>
